REM DATE 1983
REM DISCID 60087208
REM COMMENT ExactAudioCopy v1.6
CATALOG 0077732140328
PERFORMER "Spandau Ballet"
TITLE "True"
FILE "Spandau Ballet - True.flac" WAVE
  TRACK 01 AUDIO
    TITLE "Pleasure"
    INDEX 00 00:00:00
    INDEX 01 00:00:20
  TRACK 02 AUDIO
    TITLE "Communication"
    INDEX 00 03:33:25
    INDEX 01 03:35:25
  TRACK 03 AUDIO
    TITLE "Code of Love"
    INDEX 00 07:14:10
    INDEX 01 07:16:10
  TRACK 04 AUDIO
    TITLE "Gold"
    INDEX 01 12:27:62
  TRACK 05 AUDIO
    TITLE "Lifeline"
    INDEX 01 17:18:20
  TRACK 06 AUDIO
    TITLE "Heaven Is a Secret"
    INDEX 00 20:52:65
    INDEX 01 20:54:65
  TRACK 07 AUDIO
    TITLE "Foundation"
    INDEX 00 25:19:57
    INDEX 01 25:22:57
  TRACK 08 AUDIO
    TITLE "True"
    INDEX 00 29:29:65
    INDEX 01 29:31:65
